<mxfile host="app.diagrams.net" modified="2023-04-10T14:16:37.424Z" agent="Mozilla/5.0 (Macintosh; Intel Mac OS X 10_15_7) AppleWebKit/537.36 (KHTML, like Gecko) Chrome/111.0.0.0 Safari/537.36" etag="phzjPiF4J008IgokpmgQ" version="21.1.5" type="device">
  <diagram name="Page-1" id="Didf1Z-eqrXZ4EPDjRAk">
    <mxGraphModel dx="2074" dy="771" grid="1" gridSize="10" guides="1" tooltips="1" connect="1" arrows="1" fold="1" page="1" pageScale="1" pageWidth="850" pageHeight="1100" math="0" shadow="0">
      <root>
        <mxCell id="0" />
        <mxCell id="1" parent="0" />
        <mxCell id="tOXBImDikiJa05HjRKQQ-5" style="edgeStyle=orthogonalEdgeStyle;rounded=0;orthogonalLoop=1;jettySize=auto;html=1;entryX=0;entryY=0.5;entryDx=0;entryDy=0;" edge="1" parent="1" source="tOXBImDikiJa05HjRKQQ-1" target="tOXBImDikiJa05HjRKQQ-2">
          <mxGeometry relative="1" as="geometry" />
        </mxCell>
        <mxCell id="tOXBImDikiJa05HjRKQQ-1" value="&lt;b&gt;&lt;font style=&quot;font-size: 14px;&quot;&gt;Logger&lt;/font&gt;&lt;/b&gt;" style="ellipse;whiteSpace=wrap;html=1;aspect=fixed;" vertex="1" parent="1">
          <mxGeometry x="10" y="260" width="80" height="80" as="geometry" />
        </mxCell>
        <mxCell id="tOXBImDikiJa05HjRKQQ-6" style="edgeStyle=orthogonalEdgeStyle;rounded=0;orthogonalLoop=1;jettySize=auto;html=1;" edge="1" parent="1" source="tOXBImDikiJa05HjRKQQ-2" target="tOXBImDikiJa05HjRKQQ-3">
          <mxGeometry relative="1" as="geometry" />
        </mxCell>
        <mxCell id="tOXBImDikiJa05HjRKQQ-2" value="&lt;font style=&quot;font-size: 14px;&quot;&gt;&lt;b&gt;Middleware 1&lt;/b&gt;&lt;/font&gt;" style="shape=parallelogram;perimeter=parallelogramPerimeter;whiteSpace=wrap;html=1;fixedSize=1;" vertex="1" parent="1">
          <mxGeometry x="150" y="270" width="140" height="60" as="geometry" />
        </mxCell>
        <mxCell id="tOXBImDikiJa05HjRKQQ-7" style="edgeStyle=orthogonalEdgeStyle;rounded=0;orthogonalLoop=1;jettySize=auto;html=1;entryX=0;entryY=0.5;entryDx=0;entryDy=0;" edge="1" parent="1" source="tOXBImDikiJa05HjRKQQ-3" target="tOXBImDikiJa05HjRKQQ-4">
          <mxGeometry relative="1" as="geometry" />
        </mxCell>
        <mxCell id="tOXBImDikiJa05HjRKQQ-3" value="&lt;font style=&quot;font-size: 14px;&quot;&gt;&lt;b&gt;Middleware 2&lt;/b&gt;&lt;/font&gt;" style="shape=parallelogram;perimeter=parallelogramPerimeter;whiteSpace=wrap;html=1;fixedSize=1;" vertex="1" parent="1">
          <mxGeometry x="340" y="270" width="140" height="60" as="geometry" />
        </mxCell>
        <mxCell id="tOXBImDikiJa05HjRKQQ-10" style="edgeStyle=orthogonalEdgeStyle;rounded=0;orthogonalLoop=1;jettySize=auto;html=1;entryX=0;entryY=0.5;entryDx=0;entryDy=0;" edge="1" parent="1" source="tOXBImDikiJa05HjRKQQ-4" target="tOXBImDikiJa05HjRKQQ-9">
          <mxGeometry relative="1" as="geometry" />
        </mxCell>
        <mxCell id="tOXBImDikiJa05HjRKQQ-11" style="edgeStyle=orthogonalEdgeStyle;rounded=0;orthogonalLoop=1;jettySize=auto;html=1;" edge="1" parent="1" source="tOXBImDikiJa05HjRKQQ-4" target="tOXBImDikiJa05HjRKQQ-8">
          <mxGeometry relative="1" as="geometry" />
        </mxCell>
        <mxCell id="tOXBImDikiJa05HjRKQQ-4" value="&lt;font style=&quot;font-size: 14px;&quot;&gt;&lt;b&gt;Middleware 3&lt;/b&gt;&lt;/font&gt;" style="shape=parallelogram;perimeter=parallelogramPerimeter;whiteSpace=wrap;html=1;fixedSize=1;" vertex="1" parent="1">
          <mxGeometry x="530" y="270" width="140" height="60" as="geometry" />
        </mxCell>
        <mxCell id="tOXBImDikiJa05HjRKQQ-8" value="&lt;font style=&quot;font-size: 14px;&quot;&gt;&lt;b&gt;Handler 1&lt;/b&gt;&lt;/font&gt;" style="rhombus;whiteSpace=wrap;html=1;" vertex="1" parent="1">
          <mxGeometry x="750" y="170" width="100" height="100" as="geometry" />
        </mxCell>
        <mxCell id="tOXBImDikiJa05HjRKQQ-9" value="&lt;font style=&quot;font-size: 14px;&quot;&gt;&lt;b&gt;Handler 2&lt;/b&gt;&lt;/font&gt;" style="rhombus;whiteSpace=wrap;html=1;" vertex="1" parent="1">
          <mxGeometry x="750" y="330" width="100" height="100" as="geometry" />
        </mxCell>
      </root>
    </mxGraphModel>
  </diagram>
</mxfile>
